<?xml version="1.0" standalone="no"?>
<!DOCTYPE svg PUBLIC "-//W3C//DTD SVG 20010904//EN"
 "http://www.w3.org/TR/2001/REC-SVG-20010904/DTD/svg10.dtd">
<svg version="1.0" xmlns="http://www.w3.org/2000/svg"
 width="800.000000pt" height="800.000000pt" viewBox="0 0 800.000000 800.000000"
 preserveAspectRatio="xMidYMid meet">
<metadata>
Created by potrace 1.11, written by Peter Selinger 2001-2013
</metadata>
<g transform="translate(0.000000,800.000000) scale(0.100000,-0.100000)"
fill="#000000" stroke="none">
<path d="M0 4000 l0 -4000 4000 0 4000 0 0 4000 0 4000 -4000 0 -4000 0 0
-4000z m952 784 l58 -17 0 -107 0 -108 -62 25 c-53 22 -66 24 -99 14 -53 -16
-60 -43 -66 -273 l-6 -198 117 0 116 0 0 -100 0 -100 -115 0 -115 0 0 -350 0
-351 -102 3 -103 3 -3 348 -2 347 -35 0 -35 0 0 100 0 100 35 0 35 0 0 188 c0
203 10 294 40 351 59 116 196 166 342 125z m4428 -481 l0 -468 143 143 142
142 140 0 140 0 -195 -189 -195 -188 199 -249 c110 -137 203 -255 209 -261 7
-10 -19 -13 -126 -13 l-135 0 -144 183 c-79 100 -150 182 -158 182 -12 0 -16
-31 -20 -180 l-5 -180 -102 -3 -103 -3 0 776 0 775 105 0 105 0 0 -467z
m-3469 212 c41 -21 69 -71 69 -121 0 -114 -148 -166 -227 -80 -28 30 -33 43
-33 84 0 54 17 84 64 113 38 23 87 24 127 4z m390 -8 c44 -29 73 -87 65 -131
-4 -18 -21 -47 -42 -67 -32 -31 -40 -34 -95 -34 -57 0 -62 2 -95 37 -33 36
-38 54 -34 108 6 88 124 139 201 87z m5129 -112 c66 -34 91 -136 50 -203 -27
-44 -96 -75 -146 -66 -48 9 -101 57 -115 105 -16 53 1 108 46 148 30 26 44 31
86 31 27 0 63 -7 79 -15z m-5300 -287 c31 -14 73 -40 93 -58 l37 -32 0 51 0
51 105 0 105 0 0 -450 0 -450 -105 0 -105 0 0 46 0 46 -35 -26 c-101 -77 -231
-104 -351 -71 -74 20 -169 79 -206 128 -36 46 -79 134 -94 192 -21 77 -18 221
6 298 42 134 147 249 267 288 84 27 208 22 283 -13z m1425 11 c30 -11 55 -25
55 -30 0 -5 -20 -50 -45 -99 l-45 -89 -42 19 c-89 40 -166 16 -208 -66 -25
-48 -25 -51 -28 -341 l-3 -293 -105 0 -104 0 0 450 0 450 105 0 105 0 0 -35 0
-36 38 30 c20 16 51 37 67 45 43 23 143 20 210 -5z m890 -3 c51 -23 103 -73
130 -126 l15 -30 -89 -45 c-84 -42 -90 -43 -96 -25 -9 30 -54 60 -88 60 -61 0
-88 -59 -46 -101 11 -11 70 -44 132 -74 62 -29 131 -68 154 -85 151 -112 99
-376 -91 -462 -42 -19 -68 -23 -146 -23 -83 1 -101 4 -145 27 -60 31 -115 87
-144 146 l-22 43 86 39 c47 22 87 40 90 40 2 0 13 -17 25 -38 28 -49 66 -72
123 -72 56 0 86 23 93 70 9 61 -19 90 -153 158 -136 69 -194 122 -213 194 -33
122 46 270 166 313 63 23 161 19 219 -9z m2401 9 c28 -8 76 -33 107 -55 l56
-40 3 42 3 43 105 0 105 0 0 -445 0 -445 -105 0 -105 0 -3 42 -3 42 -44 -33
c-70 -54 -126 -71 -235 -71 -85 0 -102 4 -160 31 -83 39 -119 70 -170 146 -63
95 -83 175 -78 317 4 110 6 122 40 192 58 121 134 193 241 230 64 23 176 24
243 4z"/>
<path d="M7288 4372 c-30 -18 -58 -67 -58 -102 0 -34 29 -87 58 -106 31 -20
97 -23 130 -5 76 41 81 167 8 215 -33 21 -103 20 -138 -2z m100 -34 c14 -14
16 -68 2 -68 -16 0 -12 -20 11 -48 32 -41 1 -42 -33 -1 l-28 33 0 -32 c0 -22
-5 -32 -15 -32 -12 0 -15 16 -15 80 l0 80 33 0 c18 0 38 -5 45 -12z"/>
<path d="M7340 4299 c0 -24 23 -21 28 4 2 10 -3 17 -12 17 -10 0 -16 -9 -16
-21z"/>
<path d="M1912 3924 c-163 -82 -188 -343 -46 -474 24 -22 56 -45 70 -50 37
-14 139 -12 178 4 186 78 209 398 36 512 -32 21 -56 28 -113 31 -63 4 -78 1
-125 -23z"/>
<path d="M6675 3931 c-51 -23 -88 -61 -117 -119 -19 -39 -23 -63 -23 -142 0
-80 4 -102 24 -140 51 -99 115 -140 214 -140 128 0 220 79 246 209 18 94 -3
200 -54 267 -58 75 -199 107 -290 65z"/>
</g>
</svg>
