<?xml version="1.0" standalone="no"?>
<!DOCTYPE svg PUBLIC "-//W3C//DTD SVG 20010904//EN"
 "http://www.w3.org/TR/2001/REC-SVG-20010904/DTD/svg10.dtd">
<svg version="1.0" xmlns="http://www.w3.org/2000/svg"
 width="425.000000pt" height="425.000000pt" viewBox="0 0 425.000000 425.000000"
 preserveAspectRatio="xMidYMid meet">
<metadata>
Created by potrace 1.11, written by Peter Selinger 2001-2013
</metadata>
<g transform="translate(0.000000,425.000000) scale(0.100000,-0.100000)"
fill="#000000" stroke="none">
<path d="M169 2600 c-45 -12 -77 -40 -98 -84 -18 -35 -21 -64 -23 -183 -1 -78
-4 -141 -8 -141 -34 3 -38 -3 -38 -62 1 -32 4 -59 7 -58 39 4 39 4 39 -164 1
-90 1 -185 1 -213 l1 -50 47 2 c27 0 56 2 65 2 15 1 16 21 16 206 -1 113 2
208 5 211 3 4 33 6 67 6 65 0 62 -3 62 68 0 57 2 56 -67 53 l-65 -2 -1 44 c0
25 0 68 0 95 0 105 1 119 17 134 20 20 63 20 92 0 l22 -15 0 69 0 69 -42 11
c-47 12 -60 12 -99 2z"/>
<path d="M2839 2572 c-4 -91 -2 -906 2 -914 8 -12 95 -17 112 -6 8 5 12 40 13
107 0 55 3 104 7 108 8 8 25 -10 92 -97 99 -129 95 -125 174 -124 39 0 74 3
77 7 4 3 -6 22 -22 40 -16 19 -36 43 -44 53 -8 10 -50 62 -93 115 -76 95 -86
114 -68 121 17 6 212 200 207 206 -3 3 -40 5 -82 5 l-76 -1 -79 -81 c-44 -44
-83 -81 -87 -81 -4 0 -7 125 -7 277 l0 278 -62 2 c-53 2 -63 0 -64 -15z"/>
<path d="M1031 2438 c-29 -10 -54 -44 -59 -76 -4 -31 48 -82 83 -82 30 0 85
49 85 75 0 55 -61 101 -109 83z"/>
<path d="M771 2423 c-54 -45 -19 -137 52 -137 39 0 65 17 78 51 10 27 -4 70
-29 89 -24 19 -76 17 -101 -3z"/>
<path d="M4129 2363 c-27 -7 -52 -61 -45 -99 9 -46 47 -70 107 -65 22 1 59 39
59 59 -1 12 -5 9 -16 -10 -42 -78 -168 -20 -134 61 11 28 46 51 76 51 9 0 29
-13 45 -29 16 -16 29 -24 29 -17 0 7 -10 22 -23 34 -22 21 -58 26 -98 15z"/>
<path d="M4142 2285 c0 -25 4 -47 9 -51 5 -3 9 5 9 18 1 20 2 21 11 6 5 -10
17 -18 26 -18 15 0 15 2 0 18 -11 12 -13 22 -7 28 16 16 0 44 -25 44 -21 0
-23 -5 -23 -45z m30 13 c-7 -7 -12 -8 -12 -2 0 14 12 26 19 19 2 -3 -1 -11 -7
-17z"/>
<path d="M822 2191 c-219 -74 -237 -426 -28 -533 76 -39 195 -26 259 30 16 14
17 13 17 -11 0 -15 3 -27 8 -28 4 0 32 -1 62 -2 l55 -1 3 272 c1 179 -1 272
-8 273 -5 1 -26 1 -45 1 -73 0 -75 -1 -75 -28 l0 -25 -29 20 c-65 47 -142 58
-219 32z m171 -116 c54 -26 80 -76 81 -153 1 -80 -25 -131 -78 -156 -110 -52
-216 24 -216 155 0 61 35 130 78 153 35 20 96 20 135 1z"/>
<path d="M1746 2199 c-16 -4 -39 -18 -52 -30 l-24 -22 0 21 c0 22 -5 24 -75
24 -59 0 -55 21 -55 -272 0 -250 1 -270 18 -271 34 -2 105 0 108 3 2 2 4 82 4
178 2 183 9 218 49 240 25 13 88 13 96 0 3 -5 10 -10 15 -10 10 0 60 92 60
110 0 23 -95 43 -144 29z"/>
<path d="M2279 2200 c-74 -21 -125 -97 -115 -172 9 -62 32 -88 121 -134 103
-55 128 -90 89 -128 -31 -32 -106 -10 -122 35 -7 17 -10 17 -64 -8 l-57 -25
16 -27 c48 -77 92 -102 177 -104 113 -2 200 77 198 178 -2 82 -39 123 -159
175 -65 28 -91 55 -77 78 18 28 60 27 79 -2 l17 -25 48 24 c27 14 51 29 54 33
10 17 -63 90 -97 98 -48 10 -79 12 -108 4z"/>
<path d="M3716 2195 c-52 -18 -84 -42 -123 -94 -40 -51 -56 -107 -55 -185 2
-113 58 -213 143 -256 76 -39 183 -31 251 20 l28 21 0 -26 c0 -14 6 -25 13
-26 14 -1 98 -1 110 0 4 1 7 123 7 271 0 233 -2 270 -15 271 -8 1 -31 1 -50 1
-62 0 -65 -1 -65 -27 0 -22 -3 -24 -17 -15 -10 6 -33 20 -52 31 -42 25 -124
31 -175 14z m187 -131 c90 -65 81 -242 -14 -298 -38 -22 -97 -23 -139 -1 -115
59 -108 265 10 314 36 15 113 7 143 -15z"/>
</g>
</svg>
