<svg id="圖層_1" data-name="圖層 1" xmlns="http://www.w3.org/2000/svg" viewBox="0 0 100 33.19"><defs><style>.cls-1{fill:#2f2725;}.cls-2{fill:#fff;}</style></defs><title>farska-logo_flagship-line</title><rect class="cls-1" width="100" height="33.19"/><path class="cls-2" d="M13.41,17.51v8.31H11V17.51h-.89V15.2H11V11.11a4.21,4.21,0,0,1,.72-2.8A3.22,3.22,0,0,1,14.43,7.1a5.82,5.82,0,0,1,1.63.42V10l-.22-.14a3.14,3.14,0,0,0-1.28-.41.91.91,0,0,0-.93.47,4.8,4.8,0,0,0-.22,1.77V15.2h2.65v2.31Z" transform="translate(0 0)"/><path class="cls-2" d="M31,15.2h2.46V25.82H31V24.67a4.7,4.7,0,0,1-3.29,1.4,4.75,4.75,0,0,1-3.63-1.56,6.16,6.16,0,0,1-1.43-4.06,5.73,5.73,0,0,1,1.43-3.93,4.66,4.66,0,0,1,6.92-.1Zm-6.43-3.31A1.39,1.39,0,0,1,25,10.77a1.54,1.54,0,0,1,1.1-.46,1.6,1.6,0,0,1,1.08.46,1.46,1.46,0,0,1,.46,1.12,1.22,1.22,0,0,1-.46,1,1.56,1.56,0,0,1-1.08.46,1.5,1.5,0,0,1-1.1-.46,1.29,1.29,0,0,1-.45-1m.6,8.56A3.53,3.53,0,0,0,26,22.94a2.59,2.59,0,0,0,2.09,1,2.87,2.87,0,0,0,2.16-1,3.49,3.49,0,0,0,.82-2.44,3.63,3.63,0,0,0-.82-2.47,2.78,2.78,0,0,0-2.16-.93,2.61,2.61,0,0,0-2.09.93,3.48,3.48,0,0,0-.87,2.39M29,11.89a1.51,1.51,0,0,1,.47-1.12,1.6,1.6,0,0,1,1.08-.46,1.68,1.68,0,0,1,1.15.46,1.63,1.63,0,0,1,.47,1.12,1.35,1.35,0,0,1-.47,1,1.67,1.67,0,0,1-1.15.46,1.54,1.54,0,0,1-1.08-.46,1.42,1.42,0,0,1-.47-1" transform="translate(0 0)"/><path class="cls-2" d="M40.15,15.2h2.43v1a4.5,4.5,0,0,1,1.16-1A2.36,2.36,0,0,1,45,14.93a3.64,3.64,0,0,1,2,.61L45.9,17.77a2.2,2.2,0,0,0-1.34-.49c-1.31,0-2,1-2,3v5.52H40.15Z" transform="translate(0 0)"/><path class="cls-2" d="M58.63,17,56.58,18.1c-.29-.66-.67-1-1.14-1a.78.78,0,0,0-.6.21.69.69,0,0,0-.28.57c0,.4.55.82,1.45,1.19a8.29,8.29,0,0,1,2.62,1.54,2.59,2.59,0,0,1,.66,1.92,3.29,3.29,0,0,1-1.16,2.57,3.91,3.91,0,0,1-2.61.94,3.72,3.72,0,0,1-3.74-2.58l2.08-1a2.9,2.9,0,0,0,.6,1,1.61,1.61,0,0,0,1.1.44c.79,0,1.2-.4,1.2-1.11,0-.49-.29-.83-.91-1.24-.26-.11-.51-.24-.74-.36a7.33,7.33,0,0,0-.79-.4,4.09,4.09,0,0,1-1.48-1.06,2.47,2.47,0,0,1-.56-1.66,3.24,3.24,0,0,1,1-2.31,3.17,3.17,0,0,1,2.33-.86,3.28,3.28,0,0,1,3,2.1" transform="translate(0 0)"/><polygon class="cls-2" points="67.97 7.45 67.97 18.68 71.42 15.2 74.69 15.2 70.08 19.65 75.04 25.82 71.87 25.82 68.34 21.34 67.97 21.65 67.97 25.82 65.52 25.82 65.52 7.45 67.97 7.45"/><path class="cls-2" d="M87.48,15.2h2.46V25.82H87.48V24.67a4.51,4.51,0,0,1-3.2,1.42,4.66,4.66,0,0,1-3.68-1.58,5.93,5.93,0,0,1-1.42-4.06,5.58,5.58,0,0,1,1.42-3.93,4.49,4.49,0,0,1,3.54-1.59,4.54,4.54,0,0,1,3.34,1.49Zm-5.83,5.25a4,4,0,0,0,.81,2.49,2.75,2.75,0,0,0,2.1,1,3,3,0,0,0,2.25-1,3.57,3.57,0,0,0,.82-2.41,3.81,3.81,0,0,0-.82-2.49,2.86,2.86,0,0,0-2.17-.93,2.91,2.91,0,0,0-2.18.93,3.93,3.93,0,0,0-.81,2.39" transform="translate(0 0)"/><path class="cls-2" d="M91.53,15.09a1.7,1.7,0,1,1,1.7-1.7,1.7,1.7,0,0,1-1.7,1.7Zm0-3.22a1.53,1.53,0,1,0,1.52,1.52,1.53,1.53,0,0,0-1.52-1.52Z" transform="translate(0 0)"/><path class="cls-2" d="M91.3,14.3H91V12.49h.42a.69.69,0,0,1,.45.1.49.49,0,0,1,.17.4.44.44,0,0,1-.41.49l.62.82h-.33l-.61-.81h0Zm.07-1c.26,0,.39,0,.39-.25s-.12-.27-.39-.27h-.05v.52Z" transform="translate(0 0)"/></svg>